<svg width="47" height="47" viewBox="0 0 47 47" fill="none" xmlns="http://www.w3.org/2000/svg">
<circle opacity="0.5" cx="23.5" cy="23.5" r="23.5" fill="#FFE6D2"/>
<path fill-rule="evenodd" clip-rule="evenodd" d="M17.9633 17.9956H16.9962C16.9752 17.9956 16.9557 18.0152 16.9557 18.036V20.7357C16.9557 20.7566 16.9752 20.7759 16.9962 20.7759H17.9633V17.9956ZM29.3258 16.7868H30.2927C30.9809 16.7868 31.5417 17.3477 31.5417 18.036V20.7356C31.5417 21.4238 30.9809 21.9846 30.2927 21.9846H28.6222C28.1244 22.7756 27.4218 23.4666 26.6664 24.0111C26.6664 24.9805 27.3687 25.7721 28.3586 25.7721C31.2499 25.7721 33.5968 26.5344 33.5968 30.0431C33.5968 30.3769 33.3262 30.6475 32.9922 30.6475C32.6586 30.6475 32.3879 30.3769 32.3879 30.0431C32.3879 27.2287 30.5222 26.9808 28.3586 26.9808C27.8789 26.9808 27.4258 26.8634 27.0267 26.656L23.7984 28.9935C23.5922 29.1495 23.3004 29.1604 23.0802 29.0007L20.0051 26.774C19.6726 26.9074 19.3098 26.9808 18.9302 26.9808C16.7669 26.9808 14.901 27.2287 14.901 30.0431C14.901 30.3769 14.6303 30.6475 14.2967 30.6475C13.9629 30.6475 13.6921 30.3769 13.6921 30.0431C13.6921 26.5344 16.0391 25.7721 18.9302 25.7721C19.8191 25.7721 20.553 25.0787 20.6178 24.2055C19.756 23.6396 18.9506 22.8803 18.4317 21.9846H16.9962C16.308 21.9846 15.7472 21.4238 15.7472 20.7356V18.036C15.7472 17.3477 16.3079 16.7868 16.9962 16.7868H17.9633V15.9245C17.9633 13.0185 20.3106 10.6221 23.2102 10.6221H24.0786C26.9782 10.6221 29.3258 13.0188 29.3258 15.9247V16.7868ZM28.117 20.7764V16.8584C26.4763 17.0694 24.827 16.6059 23.5411 15.5748C22.3471 16.5295 20.7971 17.0361 19.1721 16.8813V20.7C19.4348 21.5392 20.0724 22.2797 20.8071 22.8567C21.8088 23.6435 22.9469 24.1083 23.5702 24.1083C24.2021 24.1083 25.4822 23.5195 26.5559 22.5583C26.7566 22.379 26.9479 22.1871 27.1243 21.9849H25.2561C25.0724 22.2294 24.7799 22.3877 24.4503 22.3877C23.8939 22.3877 23.443 21.9366 23.443 21.3805C23.443 20.824 23.8939 20.373 24.4503 20.373C24.7799 20.373 25.0724 20.5313 25.2561 20.776C26.0579 20.7759 27.394 20.7764 28.117 20.7764ZM30.2927 17.9956H29.3258V20.7759H30.2927C30.3136 20.7759 30.333 20.7566 30.333 20.7356V18.036C30.333 18.0152 30.3136 17.9956 30.2927 17.9956ZM28.1072 15.6418C28.0016 14.0874 27.0323 12.7578 25.6729 12.1632C25.4578 13.1316 25.0156 14.0013 24.4113 14.7236C25.4645 15.5149 26.7966 15.8493 28.1072 15.6418ZM24.5056 11.8538C24.3654 11.8388 24.2229 11.831 24.0786 11.831H23.2102C21.0549 11.831 19.3103 13.5438 19.18 15.6696C21.6796 15.9603 23.9875 14.291 24.5056 11.8538ZM21.0595 26.0473L23.4343 27.7669L26.0694 25.8589C25.8099 25.5256 25.6213 25.1347 25.5266 24.709C24.7635 25.0994 24.0473 25.3168 23.5702 25.3168C23.0987 25.3168 22.4373 25.142 21.7346 24.8226C21.6115 25.2861 21.3761 25.7049 21.0595 26.0473Z" fill="#FFA155"/>
<path d="M14.6252 32.5214C19.0366 36.004 25.0733 38.3258 32.7352 32.5214" stroke="#444CFC" stroke-width="1.5" stroke-linecap="round"/>
</svg>
