<svg width="120" height="25" viewBox="0 0 120 25" fill="none" xmlns="http://www.w3.org/2000/svg">
<g clip-path="url(#clip0_9998_93)">
<path d="M119.787 18.5621V21.5317H117.296C114.638 21.4481 113.218 20.0127 113.218 17.3165V10.5342H111.479V7.92915H113.218V5.0127H116.894V7.89877H119.704V10.4962H116.894V16.9519C116.894 17.8254 117.068 18.5241 118.413 18.5241L119.787 18.5621Z" fill="#232536"/>
<path d="M96.8279 14.7569V14.5594C96.7882 13.6859 96.9212 12.8131 97.2194 11.9911C97.5175 11.1691 97.975 10.414 98.5656 9.76912C99.1561 9.12424 99.8682 8.60225 100.661 8.23306C101.454 7.86387 102.311 7.65475 103.185 7.61768C103.36 7.61768 103.542 7.61768 103.717 7.61768C107.187 7.61768 110.233 9.63793 110.233 14.4531V15.4784H100.587C100.686 17.6962 101.886 18.9493 103.906 18.9493C105.646 18.9493 106.458 18.1898 106.694 17.081H110.165C109.739 19.9746 107.43 21.5848 103.777 21.5848C99.7672 21.5544 96.8279 19.0177 96.8279 14.7569ZM106.618 13.1544C106.489 11.1341 105.471 10.162 103.701 10.162C101.932 10.162 100.914 11.2557 100.663 13.1544H106.618Z" fill="#232536"/>
<path d="M81.8201 14.7569V14.5594C81.7803 13.6871 81.9129 12.8156 82.2101 11.9945C82.5073 11.1734 82.9635 10.419 83.5524 9.77431C84.1414 9.12962 84.8516 8.60733 85.6425 8.23728C86.4335 7.86723 87.2896 7.65669 88.1619 7.61768C88.3366 7.61768 88.5189 7.61768 88.6936 7.61768C92.1644 7.61768 95.2176 9.63793 95.2176 14.4531V15.4784H85.5796C85.6784 17.6962 86.8784 18.9493 88.8986 18.9493C90.6379 18.9493 91.4505 18.1898 91.686 17.081H95.1568C94.7239 19.9746 92.4151 21.5848 88.7619 21.5848C84.7594 21.5544 81.8201 19.0177 81.8201 14.7569ZM91.61 13.1544C91.4809 11.1341 90.4632 10.162 88.6936 10.162C86.9239 10.162 85.9366 11.286 85.6556 13.1468L91.61 13.1544Z" fill="#232536"/>
<path d="M60.7595 7.89868H64.6481L67.0253 16.9063L69.6304 7.89868H72.6684L75.0228 16.9063L77.5291 7.89868H81.0912L76.8684 21.281H73.2228L70.9443 12.881L68.5064 21.281H64.8152L60.7595 7.89868Z" fill="#232536"/>
<path d="M48.4026 17.0735H51.8735C52.033 18.2811 52.633 18.9722 54.2279 18.9722C55.6558 18.9722 56.3165 18.433 56.3165 17.514C56.3165 16.595 55.557 16.2077 53.6127 15.9342C50.0507 15.395 48.676 14.3697 48.676 11.757C48.676 8.96968 51.2279 7.5874 53.9925 7.5874C56.9621 7.5874 59.2026 8.66588 59.5216 11.7418H56.0963C56.0744 11.504 56.0056 11.2729 55.894 11.0619C55.7823 10.8508 55.6299 10.6639 55.4455 10.5121C55.2612 10.3603 55.0487 10.2465 54.8201 10.1773C54.5916 10.1081 54.3516 10.0848 54.114 10.1089H54.0001C52.8001 10.1089 52.1013 10.6709 52.1013 11.4912C52.1013 12.3115 52.7469 12.6684 54.7064 12.9494C58.033 13.4507 59.8937 14.2937 59.8937 17.157C59.8937 20.0203 57.7899 21.5545 54.2659 21.5545C50.7418 21.5545 48.5013 19.9671 48.4026 17.0735Z" fill="#232536"/>
<path d="M33.6531 7.8987H37.329V10.0177C37.7434 9.23991 38.3723 8.59744 39.141 8.16662C39.9098 7.73579 40.7861 7.53472 41.6657 7.5873C44.2708 7.5873 46.1619 9.17465 46.1619 12.7974V21.3114H42.5316V13.3291C42.5316 11.5139 41.8252 10.6481 40.1847 10.6481C39.838 10.6179 39.4887 10.6565 39.1569 10.7616C38.8251 10.8668 38.5174 11.0364 38.2513 11.2608C37.9853 11.4852 37.7662 11.76 37.6066 12.0693C37.447 12.3786 37.3501 12.7164 37.3214 13.0633C37.3024 13.2247 37.3024 13.3879 37.3214 13.5493V21.281H33.6531V7.8987Z" fill="#232536"/>
<path d="M26.5596 4.53413C26.5463 4.16762 26.642 3.80541 26.8346 3.49333C27.0273 3.18126 27.3082 2.93337 27.6418 2.78105C27.9754 2.62872 28.3468 2.57882 28.7088 2.63764C29.0708 2.69647 29.4072 2.86139 29.6754 3.11151C29.9436 3.36164 30.1316 3.68572 30.2155 4.04274C30.2994 4.39976 30.2755 4.77365 30.1468 5.11708C30.0182 5.46051 29.7905 5.75803 29.4926 5.97198C29.1947 6.18592 28.84 6.30667 28.4735 6.31894H28.4051C28.1776 6.33334 27.9495 6.30268 27.7339 6.22872C27.5183 6.15476 27.3194 6.03896 27.1486 5.88795C26.9779 5.73695 26.8386 5.55372 26.7388 5.34876C26.639 5.14381 26.5807 4.92117 26.5672 4.69362C26.5609 4.64071 26.5583 4.58741 26.5596 4.53413ZM26.5596 7.89869H30.2735V21.281H26.5748L26.5596 7.89869Z" fill="#232536"/>
<path d="M12.562 2.99243H24.3038V6.23547H16.7088V11.0734H22.724V14.195H16.7013V21.281H12.562V2.99243Z" fill="#232536"/>
<path d="M5.47595 8.97721C5.47595 10.1241 5.47595 11.5215 3.8962 12.0911C5.51393 12.6456 5.47595 13.8228 5.47595 15.0532V19.6101C5.47595 20.4759 5.82532 21 6.4481 21.1291C6.58495 21.1753 6.72912 21.1959 6.87342 21.1899H8.39241V24.2278H5.88608C3.21266 24.2278 1.73924 22.7089 1.73924 19.8911V14.4987C1.72028 14.2219 1.59821 13.9622 1.39714 13.771C1.19607 13.5798 0.930606 13.4709 0.653165 13.4658H0V10.8H0.653165C0.936141 10.7963 1.20682 10.6837 1.40904 10.4858C1.61126 10.2878 1.72951 10.0195 1.73924 9.73671V4.26835C1.73924 1.4962 3.18228 0 5.88608 0H8.41519V2.9924H6.8962C6.75173 2.99282 6.60822 3.01589 6.47089 3.06076C5.8481 3.22025 5.49873 3.73671 5.49873 4.57975L5.47595 8.97721Z" fill="#232536"/>
</g>
<defs>
<clipPath id="clip0_9998_93">
<rect width="120" height="24.3038" fill="white"/>
</clipPath>
</defs>
</svg>
